<svg width="75" height="75" viewBox="0 0 75 75" fill="none" xmlns="http://www.w3.org/2000/svg">
<g clip-path="url(#clip0_8_32)">
<path d="M63.4922 13.6266C58.6295 11.3934 53.4976 9.80038 48.225 8.8875C48.1772 8.87945 48.1282 8.8864 48.0845 8.90739C48.0409 8.92837 48.0048 8.96236 47.9813 9.00469C47.3203 10.1766 46.5891 11.7094 46.0781 12.9094C40.395 12.0476 34.6144 12.0476 28.9312 12.9094C28.3637 11.5715 27.7189 10.2677 27 9.00469C26.9765 8.96236 26.9404 8.92837 26.8967 8.90739C26.8531 8.8864 26.804 8.87945 26.7563 8.8875C21.4828 9.79687 16.35 11.3906 11.4891 13.6266C11.4473 13.6421 11.4124 13.672 11.3906 13.7109C1.66875 28.2375 -0.998439 42.4078 0.309373 56.4C0.318748 56.4688 0.351561 56.5266 0.407811 56.5734C6.07016 60.7651 12.402 63.9667 19.1344 66.0422C19.1819 66.0572 19.233 66.0566 19.2802 66.0406C19.3274 66.0246 19.3683 65.994 19.3969 65.9531C20.8438 63.9844 22.1219 61.9078 23.2312 59.7234C23.2543 59.6785 23.2622 59.6272 23.2538 59.5774C23.2453 59.5275 23.221 59.4818 23.1844 59.4469L23.1 59.3953C21.0814 58.617 19.1256 57.6846 17.25 56.6063C17.1976 56.5766 17.1587 56.5279 17.1413 56.4703C17.1238 56.4127 17.1292 56.3506 17.1562 56.2969L17.2266 56.2078C17.6234 55.9109 18.0109 55.6063 18.3891 55.2938C18.4222 55.2671 18.4619 55.25 18.504 55.2442C18.5462 55.2384 18.589 55.2442 18.6281 55.2609C30.9047 60.8672 44.1938 60.8672 56.3203 55.2609C56.3606 55.2423 56.4053 55.2355 56.4493 55.2414C56.4933 55.2472 56.5347 55.2653 56.5688 55.2938C56.9469 55.6063 57.3344 55.9109 57.7313 56.2078C57.7642 56.2304 57.7909 56.261 57.8087 56.2968C57.8265 56.3326 57.8349 56.3723 57.833 56.4123C57.8311 56.4522 57.8191 56.491 57.798 56.5249C57.7769 56.5589 57.7475 56.5869 57.7125 56.6063C55.845 57.7016 53.8861 58.6333 51.8578 59.3906C51.8255 59.4023 51.7962 59.421 51.7719 59.4453C51.7475 59.4696 51.7289 59.4989 51.7172 59.5313C51.7058 59.5625 51.7011 59.5957 51.7036 59.6289C51.706 59.662 51.7154 59.6942 51.7313 59.7234C52.8563 61.9031 54.1453 63.9844 55.5609 65.9531C55.5895 65.994 55.6304 66.0246 55.6776 66.0406C55.7248 66.0566 55.7759 66.0572 55.8234 66.0422C62.5691 63.9781 68.912 60.7757 74.5781 56.5734C74.6063 56.5536 74.6297 56.5277 74.6467 56.4977C74.6637 56.4677 74.6739 56.4344 74.6766 56.4C76.2422 40.2234 72.0563 26.1703 63.5859 13.7156C63.5786 13.6944 63.5662 13.6752 63.5499 13.6597C63.5336 13.6442 63.5138 13.6328 63.4922 13.6266ZM25.0641 47.8781C21.3656 47.8781 18.3234 44.4844 18.3234 40.3219C18.3234 36.1594 21.3094 32.7609 25.0641 32.7609C28.8469 32.7609 31.8609 36.1828 31.8047 40.3219C31.8047 44.4844 28.8188 47.8781 25.0641 47.8781ZM49.9828 47.8781C46.2891 47.8781 43.2422 44.4844 43.2422 40.3219C43.2422 36.1594 46.2281 32.7609 49.9828 32.7609C53.7656 32.7609 56.7844 36.1828 56.7234 40.3219C56.7234 44.4844 53.7656 47.8781 49.9828 47.8781Z" fill="black"/>
</g>
<defs>
<clipPath id="clip0_8_32">
<rect width="75" height="75" fill="white"/>
</clipPath>
</defs>
</svg>
