<svg width="75" height="75" viewBox="0 0 75 75" fill="none" xmlns="http://www.w3.org/2000/svg">
<path d="M37.5 0C27.3234 0 26.0438 0.046875 22.0453 0.225C18.0469 0.4125 15.3234 1.04062 12.9375 1.96875C10.4336 2.90778 8.16629 4.38468 6.29531 6.29531C4.38468 8.16629 2.90778 10.4336 1.96875 12.9375C1.04062 15.3188 0.407813 18.0469 0.225 22.0312C0.046875 26.0391 0 27.3141 0 37.5047C0 47.6859 0.046875 48.9609 0.225 52.9594C0.4125 56.9531 1.04062 59.6766 1.96875 62.0625C2.92969 64.5281 4.20938 66.6188 6.29531 68.7047C8.37656 70.7906 10.4672 72.075 12.9328 73.0312C15.3234 73.9594 18.0422 74.5922 22.0359 74.775C26.0391 74.9531 27.3141 75 37.5 75C47.6859 75 48.9563 74.9531 52.9594 74.775C56.9484 74.5875 59.6813 73.9594 62.0672 73.0312C64.5694 72.0916 66.8351 70.6147 68.7047 68.7047C70.7906 66.6188 72.0703 64.5281 73.0312 62.0625C73.9547 59.6766 74.5875 56.9531 74.775 52.9594C74.9531 48.9609 75 47.6859 75 37.5C75 27.3141 74.9531 26.0391 74.775 22.0359C74.5875 18.0469 73.9547 15.3188 73.0312 12.9375C72.0922 10.4336 70.6153 8.16629 68.7047 6.29531C66.8337 4.38468 64.5664 2.90778 62.0625 1.96875C59.6719 1.04062 56.9437 0.407813 52.9547 0.225C48.9516 0.046875 47.6813 0 37.4906 0H37.5ZM34.1391 6.75938H37.5047C47.5172 6.75938 48.7031 6.79219 52.6547 6.975C56.3109 7.13906 58.2984 7.75313 59.6203 8.26406C61.3687 8.94375 62.6203 9.75937 63.9328 11.0719C65.2453 12.3844 66.0563 13.6313 66.7359 15.3844C67.2516 16.7016 67.8609 18.6891 68.025 22.3453C68.2078 26.2969 68.2453 27.4828 68.2453 37.4906C68.2453 47.4984 68.2078 48.6891 68.025 52.6406C67.8609 56.2969 67.2469 58.2797 66.7359 59.6016C66.1305 61.2277 65.1714 62.699 63.9281 63.9094C62.6156 65.2219 61.3688 66.0328 59.6156 66.7125C58.3031 67.2281 56.3156 67.8375 52.6547 68.0062C48.7031 68.1844 47.5172 68.2266 37.5047 68.2266C27.4922 68.2266 26.3016 68.1844 22.35 68.0062C18.6938 67.8375 16.7109 67.2281 15.3891 66.7125C13.7617 66.109 12.2887 65.1516 11.0766 63.9094C9.83097 62.6981 8.87029 61.2251 8.26406 59.5969C7.75313 58.2797 7.13906 56.2922 6.975 52.6359C6.79688 48.6844 6.75938 47.4984 6.75938 37.4813C6.75938 27.4641 6.79688 26.2875 6.975 22.3359C7.14375 18.6797 7.75313 16.6922 8.26875 15.3703C8.94844 13.6219 9.76406 12.3703 11.0766 11.0578C12.3891 9.74531 13.6359 8.93437 15.3891 8.25469C16.7109 7.73906 18.6938 7.12969 22.35 6.96094C25.8094 6.80156 27.15 6.75469 34.1391 6.75V6.75938ZM57.5203 12.9844C56.9294 12.9844 56.3442 13.1008 55.7982 13.3269C55.2523 13.5531 54.7562 13.8845 54.3383 14.3024C53.9205 14.7203 53.589 15.2163 53.3629 15.7623C53.1367 16.3083 53.0203 16.8934 53.0203 17.4844C53.0203 18.0753 53.1367 18.6605 53.3629 19.2064C53.589 19.7524 53.9205 20.2485 54.3383 20.6664C54.7562 21.0842 55.2523 21.4157 55.7982 21.6418C56.3442 21.868 56.9294 21.9844 57.5203 21.9844C58.7138 21.9844 59.8584 21.5103 60.7023 20.6664C61.5462 19.8224 62.0203 18.6778 62.0203 17.4844C62.0203 16.2909 61.5462 15.1463 60.7023 14.3024C59.8584 13.4585 58.7138 12.9844 57.5203 12.9844ZM37.5047 18.2437C34.9503 18.2039 32.4136 18.6726 30.0421 19.6225C27.6706 20.5725 25.5118 21.9847 23.6913 23.777C21.8709 25.5693 20.4251 27.7058 19.4383 30.0622C18.4515 32.4185 17.9433 34.9477 17.9433 37.5023C17.9433 40.057 18.4515 42.5862 19.4383 44.9425C20.4251 47.2989 21.8709 49.4354 23.6913 51.2277C25.5118 53.02 27.6706 54.4322 30.0421 55.3821C32.4136 56.3321 34.9503 56.8008 37.5047 56.7609C42.5604 56.6821 47.3822 54.6183 50.9296 51.0152C54.4769 47.4121 56.4652 42.5586 56.4652 37.5023C56.4652 32.4461 54.4769 27.5926 50.9296 23.9895C47.3822 20.3863 42.5604 18.3226 37.5047 18.2437ZM37.5047 24.9984C39.1464 24.9984 40.7721 25.3218 42.2888 25.9501C43.8056 26.5783 45.1838 27.4992 46.3446 28.6601C47.5055 29.8209 48.4264 31.1991 49.0546 32.7159C49.6829 34.2326 50.0063 35.8583 50.0063 37.5C50.0063 39.1417 49.6829 40.7674 49.0546 42.2841C48.4264 43.8009 47.5055 45.1791 46.3446 46.3399C45.1838 47.5008 43.8056 48.4217 42.2888 49.0499C40.7721 49.6782 39.1464 50.0016 37.5047 50.0016C34.1891 50.0016 31.0092 48.6844 28.6647 46.3399C26.3202 43.9954 25.0031 40.8156 25.0031 37.5C25.0031 34.1844 26.3202 31.0046 28.6647 28.6601C31.0092 26.3156 34.1891 24.9984 37.5047 24.9984Z" fill="black"/>
</svg>
