<svg width="75" height="75" viewBox="0 0 75 75" fill="none" xmlns="http://www.w3.org/2000/svg">
<path d="M37.7391 9.37031H38.1562C42.0094 9.38437 61.5328 9.525 66.7969 10.9406C68.3882 11.3727 69.8384 12.2148 71.0023 13.3829C72.1663 14.5509 73.0033 16.004 73.4297 17.5969C73.9031 19.3781 74.2359 21.7359 74.4609 24.1687L74.5078 24.6562L74.6109 25.875L74.6484 26.3625C74.9531 30.6469 74.9906 34.6594 74.9953 35.5359V35.8875C74.9906 36.7969 74.9484 41.0812 74.6109 45.5437L74.5734 46.0359L74.5312 46.5234C74.2969 49.2047 73.95 51.8672 73.4297 53.8266C73.0033 55.4194 72.1663 56.8725 71.0023 58.0406C69.8384 59.2086 68.3882 60.0508 66.7969 60.4828C61.3594 61.9453 40.6922 62.0484 37.8281 62.0531H37.1625C35.7141 62.0531 29.7234 62.025 23.4422 61.8094L22.6453 61.7813L22.2375 61.7625L21.4359 61.7297L20.6344 61.6969C15.4312 61.4672 10.4766 61.0969 8.19375 60.4781C6.60294 60.0465 5.1532 59.2051 3.9893 58.0379C2.8254 56.8707 1.98808 55.4186 1.56094 53.8266C1.04062 51.8719 0.69375 49.2047 0.459375 46.5234L0.421875 46.0312L0.384375 45.5437C0.151704 42.3676 0.0235093 39.1846 0 36L0 35.4234C0.009375 34.4156 0.046875 30.9328 0.3 27.0891L0.332813 26.6062L0.346875 26.3625L0.384375 25.875L0.4875 24.6562L0.534375 24.1687C0.759375 21.7359 1.09219 19.3734 1.56562 17.5969C1.99205 16.004 2.82906 14.5509 3.993 13.3829C5.15695 12.2148 6.60706 11.3727 8.19844 10.9406C10.4812 10.3313 15.4359 9.95625 20.6391 9.72187L21.4359 9.68906L22.2422 9.66094L22.6453 9.64687L23.4469 9.61406C27.908 9.47064 32.371 9.39094 36.8344 9.375L37.7391 9.37031ZM30 24.4172V47.0016L49.4859 35.7141L30 24.4172Z" fill="black"/>
</svg>
